<svg xmlns="http://www.w3.org/2000/svg" xmlns:xlink="http://www.w3.org/1999/xlink" width="344" height="362">
	<path fill="#FDFCFB" d="M0 0L344 0L344 361.562C343.723 361.737 343.452 361.857 343.13 361.93C341.431 362.315 339.01 361.997 337.221 361.998L322.262 362.001L259.883 362L5.04816 361.999C3.61918 361.999 1.1818 362.315 0 361.562L0 0Z"/>
	<path fill="#7E1B52" d="M166.776 33.9817C171.11 34.041 176.093 35.9939 180.291 37.0574Q193.171 40.2227 206.009 43.5545L257.013 56.4855C267.522 59.0982 278.226 61.4338 288.637 64.3763C289.93 64.7417 291.164 65.136 292.214 66.0029C292.579 66.547 292.547 67.0319 292.507 67.6599C292.184 72.7723 291.162 78.0048 290.476 83.0944L285.534 118.222C284.782 123.686 283.866 129.184 283.376 134.677C289.989 135.447 296.877 137.801 303.33 139.514C311.151 141.59 317.306 143.911 321.55 151.328C323.227 154.261 324.207 157.363 324.606 160.712C325.551 168.643 324.869 178.885 324.876 187.07L324.894 211.332C324.897 218.595 325.599 226.784 323.697 233.836C322.869 236.907 321.395 240.151 319.446 242.686C316.691 246.269 313.098 249.432 309.979 252.717C307.491 255.337 305.141 258.085 302.647 260.7C298.486 265.062 294.146 269.277 289.892 273.549Q285.142 278.267 280.486 283.078C277.44 286.282 274.499 289.617 271.242 292.608C269.475 294.231 267.621 295.734 265.524 296.917C254.341 303.224 242.798 297.951 231.592 294.766C229.357 296.97 227.41 299.497 225.332 301.85C220.904 306.865 215.473 312.158 209.494 315.283C199.49 320.511 189.184 317.673 179.109 314.511C175.73 313.508 171.559 312.644 168.518 310.903C165.233 314.212 157.369 321.811 153.582 324.131Q120.714 314.456 87.6479 305.477C76.9132 302.52 65.9261 299.902 55.3368 296.472C54.541 296.214 53.794 295.968 53.1383 295.427C52.9352 294.606 52.9242 293.938 53.0985 293.106C53.4418 291.47 65.0848 282.713 67.0604 281.464Q66.3159 280.921 65.5873 280.357C64.3699 279.409 63.6603 278.343 63.4995 276.77C61.8406 260.546 65.5282 263.461 74.618 252.128C64.2475 247.803 56.84 250.382 49.5582 238.454Q48.9111 237.389 48.3798 236.262Q47.8484 235.136 47.4386 233.959Q47.0289 232.783 46.7453 231.569Q46.4617 230.356 46.3074 229.12C45.7663 224.77 46.0154 220.224 46.0203 215.847L46.124 192.93Q46.1657 185.074 46.1088 177.219C46.0866 172.26 45.6682 166.921 46.8818 162.082C47.8123 158.372 49.1345 155.474 51.7379 152.635C56.3431 147.614 62.3434 143.472 67.6662 139.233L93.7981 118.359Q100.442 113.065 107.009 107.677C109.797 105.386 112.692 102.623 115.802 100.809C127.23 94.146 141.166 99.6424 152.827 102.774C154.832 87.6776 158.439 72.3129 161.505 57.3761C162.918 50.4907 164.242 40.1797 166.776 33.9817Z"/>
	<path fill="#AB4774" d="M149.052 105.932C149.45 105.992 149.871 106.041 150.257 106.154C150.877 106.336 151.087 106.485 151.403 107.027C151.246 110.966 149.706 118.607 148.628 122.45L140.7 120.35C139.468 119.994 136.891 119.508 136.108 118.484C135.878 118.183 135.855 117.826 135.927 117.459C136.538 114.333 146.225 107.584 149.052 105.932Z"/>
	<path fill="#AB4774" d="M282.544 138.877C286.605 139.155 293.898 141.582 298.232 142.63C295.663 145.808 292.797 148.674 289.932 151.579C286.936 154.898 284.424 156.548 279.944 157.122C280.127 154.59 280.677 152.02 281.032 149.503C281.532 145.961 281.913 142.399 282.544 138.877Z"/>
	<path fill="#B37E9B" d="M224.187 292.392C225.034 292.698 226.35 292.765 226.946 293.444C226.931 293.571 226.918 293.75 226.873 293.878C226.128 295.978 215.507 306.108 213.207 308.029Q211.062 309.85 208.599 311.211C197.741 317.127 185.748 312.475 174.875 309.235L171.506 308.105Q171.914 307.61 172.331 307.123C172.822 306.553 173.314 305.951 174.106 305.878C176.169 305.69 178.531 306.696 180.481 307.311C186.514 309.215 192.364 311.444 198.815 310.913C209.81 310.008 217.558 300.144 224.187 292.392Z"/>
	<path fill="#AB4774" d="M79.4711 253.154C81.7493 253.385 92.5202 255.683 93.9223 257.227C92.9766 259.428 81.7236 268.375 79.1084 270.565Q77.2986 272.207 75.5148 273.878C72.8784 272.718 70.0059 271.885 67.279 270.944C67.2389 269.461 67.0743 267.635 67.593 266.22C68.6449 263.351 76.8445 256.003 79.4711 253.154Z"/>
	<path fill="#AB4774" d="M195.332 284.193C203.64 286.645 212.116 288.486 220.356 291.191C214.342 296.911 209.797 303.266 201.776 306.385C194.996 307.726 189.742 306.112 183.334 304.129C181.352 303.515 179.375 302.805 177.302 302.587C179.16 300.056 181.797 297.796 184.018 295.57L195.332 284.193Z"/>
	<path fill="#B37E9B" d="M101.653 222.009C101.996 221.989 102.336 221.982 102.68 222.001C106.097 222.19 113.322 224.836 116.915 225.857L151.176 235.515L190.224 246.177C196.591 247.908 203.204 249.354 209.444 251.486C211.154 252.07 212.822 253.157 214.01 254.525C215.367 256.09 216.245 258.225 216.682 260.232C217.482 263.91 217.925 281.956 217.615 286.004C216.231 285.673 214.877 285.217 213.528 284.768C213.236 280.307 213.124 275.783 213.058 271.311C213.008 267.922 213.452 263.992 212.588 260.72C212.328 259.737 211.641 258.962 211.011 258.192C209.266 256.458 207.412 255.404 205.077 254.619C202.723 253.828 200.254 253.299 197.858 252.638Q189.763 250.365 181.629 248.234L144.361 238.038C136.394 235.812 128.383 233.653 120.454 231.305C115.3 229.778 108.972 227.343 103.737 226.671C102.643 226.531 101.826 226.75 100.968 227.457C100.082 228.187 99.6245 229.199 99.3785 230.296C98.9078 232.394 99.0745 234.669 99.0961 236.805C99.147 241.864 99.5917 247.267 99.0796 252.301L99.0437 252.634C98.2388 253.439 97.269 254.075 96.3471 254.739C94.9993 250.58 94.4697 231.918 95.8393 227.873C96.803 225.027 99.0553 223.269 101.653 222.009Z"/>
	<path fill="#AB4774" d="M320.821 163.927C321.076 166.791 320.85 169.862 320.878 172.75Q320.988 183.369 320.979 193.988L320.978 212.771C320.992 218.525 321.268 224.568 320.24 230.251C319.501 234.336 318.19 237.615 315.499 240.865C313.007 243.875 310.062 246.582 307.398 249.447C295.845 261.873 283.491 273.485 272.233 286.189C273.484 281.037 273.013 275.319 273.014 270.044L273.013 250.566C273.01 241.483 273.445 231.38 272.921 222.458C272.771 219.907 272.42 217.239 271.587 214.814C277.431 209.501 282.631 203.475 287.986 197.688C290.82 194.625 293.817 191.717 296.675 188.677C301.09 183.981 305.378 179.254 309.914 174.663C313.411 171.122 316.877 166.955 320.821 163.927Z"/>
	<path fill="#FDFCFB" d="M121.979 236.209C133.978 239.801 146.158 242.977 158.254 246.234L178.746 251.893Q188.382 254.376 197.97 257.037C200.691 257.792 203.648 258.415 206.272 259.441C207.608 259.964 208.466 260.861 209.413 261.905C206.224 266.691 201.863 270.673 198.003 274.903C192.555 280.872 186.96 286.599 181.327 292.39C172.171 301.803 162.836 311.117 152.777 319.57L148.016 318.162L84.3353 300.57C75.8447 298.278 67.3568 295.262 58.7277 293.584C62.5376 289.771 66.7521 286.464 70.8956 283.03C76.1429 278.682 81.3983 274.264 86.4952 269.742C95.4799 261.771 103.947 253.259 112.593 244.933C115.668 241.971 118.872 239.138 121.979 236.209Z"/>
	<path fill="#7E2F3F" d="M150.579 310.299C149.527 311.181 148.492 312.373 147.043 312.306L146.743 311.792C146.951 310.364 151.541 307.027 152.868 306.021C152.645 307.805 149.933 308.353 150.579 310.299Z"/>
	<path fill="#7E2F3F" d="M184.096 265.932C186.319 266.232 188.525 266.757 190.72 267.215L191.346 267.516C191.075 268.241 190.137 268.346 189.54 268.795C187.422 268.128 185.174 267.776 182.997 267.343C183.486 266.953 183.872 266.802 184.473 266.629L184.684 266.57L184.096 265.932Z"/>
	<path fill="#7E1B52" d="M150.42 303.422C151.978 302.801 154.696 303.235 156.218 303.875C156.509 303.997 156.669 304.456 156.824 304.73C154.866 306.655 152.898 308.799 150.579 310.299C149.933 308.353 152.645 307.805 152.868 306.021C153.348 305.398 154.129 304.892 154.743 304.394Q152.571 303.954 150.42 303.422Z"/>
	<path fill="#7E1B52" d="M190.72 267.215C190.778 267.203 190.835 267.194 190.892 267.18C194.06 266.389 195.615 260.9 198.689 260.353C198.851 260.508 198.995 260.554 198.995 260.79C199.004 263.374 193.634 268.037 191.834 269.771C191.407 270.183 190.922 270.729 190.427 271.046C190.093 271.078 189.783 271.17 189.459 271.253Q189.174 270.734 188.902 270.209C189.303 269.718 189.428 269.415 189.54 268.795C190.137 268.346 191.075 268.241 191.346 267.516L190.72 267.215Z"/>
	<path fill="#7E2F3F" d="M120.952 248.899C123.698 248.906 138.052 253.812 141.694 254.867Q156.89 259.118 172.157 263.107C176.093 264.118 180.23 264.726 184.096 265.932L184.684 266.57L184.473 266.629C183.872 266.802 183.486 266.953 182.997 267.343C172.854 265.26 162.939 262.418 152.938 259.753C142.294 256.917 130.721 254.028 120.457 250.186C120.516 249.699 120.73 249.327 120.952 248.899Z"/>
	<path fill="#7E2F3F" d="M182.497 277.168C184.55 274.786 186.762 272.514 188.902 270.209Q189.174 270.734 189.459 271.253C189.783 271.17 190.093 271.078 190.427 271.046C188.771 272.797 187.082 274.526 185.479 276.325C181.1 281.354 176.38 286.105 171.686 290.839C167.299 295.264 162.936 299.767 158.056 303.656L156.824 304.73C156.669 304.456 156.509 303.997 156.218 303.875C154.696 303.235 151.978 302.801 150.42 303.422C147.05 303.124 143.369 301.96 140.039 301.221C125.532 298.001 112.436 294.396 98.5147 289.097C94.6466 287.624 90.5402 286.26 86.8822 284.31C87.5185 283.803 88.0439 283.511 88.8186 283.261C92.4102 285.155 96.4828 286.446 100.287 287.88C116.204 293.877 130.996 297.557 147.592 301.1C149.321 301.469 155.09 303.044 156.539 302.855C158.759 300.868 160.825 298.673 162.979 296.609C165.894 293.814 170.698 289.65 172.937 286.491L172.583 286.162C172.893 285.911 172.931 285.786 173.085 285.43L172.377 284.615C172.684 284.73 172.995 284.846 173.316 284.919C175.584 285.437 180.436 278.595 182.497 277.168Z"/>
	<path fill="#7E1B52" d="M90.6812 277.33C93.471 275.097 96.0018 272.499 98.5947 270.042C104.697 264.259 110.87 258.209 116.288 251.77C118.768 248.824 120.892 245.59 123.37 242.665C124.015 241.904 124.693 241.025 125.729 240.935L125.912 241.384C125.407 243.847 122.54 246.93 120.952 248.899C120.73 249.327 120.516 249.699 120.457 250.186L119.968 250.174L106.259 265.481C110.839 267.271 115.268 269.342 119.909 271.008C136 276.783 152.544 280.767 169.314 284.015L172.377 284.615L173.085 285.43C172.931 285.786 172.893 285.911 172.583 286.162C170.854 285.978 169.115 285.836 167.424 285.418C146.181 281.389 124.584 275.728 104.832 266.824C102.902 268.569 101.11 270.478 99.1876 272.238C97.1453 274.107 94.9593 275.817 92.852 277.612C91.0429 279.323 89.1662 280.823 87.2461 282.397L87.2533 282.702C87.7731 282.919 88.2754 283.111 88.8186 283.261C88.0439 283.511 87.5185 283.803 86.8822 284.31L85.8775 284.074C82.9188 284.867 78.433 289.676 75.4955 291.493C74.677 291.999 74.1188 292.283 73.1551 292.061L72.9261 291.651C73.0644 291.278 73.1733 291.097 73.4729 290.822C75.7774 288.708 78.6417 286.913 81.1338 284.995C84.3708 282.503 87.448 279.822 90.6812 277.33Z"/>
	<path fill="#FDFCFB" d="M106.259 265.481L119.968 250.174L120.457 250.186C130.721 254.028 142.294 256.917 152.938 259.753C162.939 262.418 172.854 265.26 182.997 267.343C185.174 267.776 187.422 268.128 189.54 268.795C189.428 269.415 189.303 269.718 188.902 270.209C186.762 272.514 184.55 274.786 182.497 277.168C180.436 278.595 175.584 285.437 173.316 284.919C172.995 284.846 172.684 284.73 172.377 284.615L169.314 284.015C152.544 280.767 136 276.783 119.909 271.008C115.268 269.342 110.839 267.271 106.259 265.481Z"/>
	<path fill="#FDFCFB" d="M104.832 266.824C124.584 275.728 146.181 281.389 167.424 285.418C169.115 285.836 170.854 285.978 172.583 286.162L172.937 286.491C170.698 289.65 165.894 293.814 162.979 296.609C160.825 298.673 158.759 300.868 156.539 302.855C155.09 303.044 149.321 301.469 147.592 301.1C130.996 297.557 116.204 293.877 100.287 287.88C96.4828 286.446 92.4102 285.155 88.8186 283.261C88.2754 283.111 87.7731 282.919 87.2533 282.702L87.2461 282.397C89.1662 280.823 91.0429 279.323 92.852 277.612C94.9593 275.817 97.1453 274.107 99.1876 272.238C101.11 270.478 102.902 268.569 104.832 266.824Z"/>
	<path fill="#B37E9B" d="M64.9482 146.437C72.444 139.905 81.3339 133.399 89.209 127.143C97.4128 120.625 105.368 113.766 113.628 107.334C120.805 101.746 126.622 100.428 135.485 102.561C138.106 103.192 140.746 104.04 143.428 104.347L143.768 104.383C140.746 106.815 137.423 109.348 134.667 112.063C133.218 113.49 131.936 115.33 131.974 117.448C132.002 119.019 132.802 120.452 133.916 121.522C135.251 122.805 136.985 123.563 138.724 124.127C141.59 125.057 144.615 125.618 147.52 126.448C162.187 130.638 177.02 134.132 191.762 138.03L252.095 153.894C259.126 155.721 276.217 161.196 282.794 161.001C284.644 160.946 286.612 159.979 288.102 158.944C292.02 156.222 299.722 147.772 303.186 143.972C307.4 144.948 311.32 146.037 314.589 149.054C318.713 152.861 320.608 158.429 320.821 163.927C316.877 166.955 313.411 171.122 309.914 174.663C305.378 179.254 301.09 183.981 296.675 188.677C293.817 191.717 290.82 194.625 287.986 197.688C282.631 203.475 277.431 209.501 271.587 214.814C269.745 209.02 265.31 202.724 259.823 199.872C258.202 199.03 256.442 198.322 254.702 197.774C245.612 194.909 236.164 192.817 226.938 190.423C220.615 188.783 214.332 186.715 207.962 185.309C206.974 185.091 205.516 184.637 204.558 185.006C203.486 185.42 203.058 186.666 202.682 187.65C198.419 186.805 193.044 184.667 188.653 183.449C172.756 179.041 156.989 174.14 140.98 170.153C136.729 169.094 132.39 167.329 128.042 166.834C128.313 166.237 128.691 165.526 128.691 164.855C128.69 164.329 128.504 163.804 128.126 163.432C127.441 162.758 126.52 162.368 125.622 162.071C117.55 159.403 108.497 157.32 100.208 155.016C90.9391 152.44 81.6433 149.428 72.2671 147.309C69.8125 146.755 67.4717 146.409 64.9482 146.437Z"/>
	<path fill="#FDFCFB" d="M169.3 38.8273C173.523 39.4066 177.866 40.9067 182.034 41.9193Q197.769 45.7067 213.427 49.7972L261.165 61.8537C270.101 64.0907 279.106 66.1521 287.972 68.6532C287.983 72.5941 287.318 76.4989 286.772 80.3923L284.734 94.6814L280.146 126.427C278.656 136.217 276.966 146.066 275.921 155.91L272.144 154.841C259.612 151.266 246.897 148.222 234.272 144.983L192.322 133.993C184.515 131.972 176.657 130.095 168.872 128C163.503 126.556 157.985 124.57 152.485 123.801C154.506 115.251 155.845 106.416 157.589 97.7934L169.3 38.8273Z"/>
	<path fill="#C997B0" d="M91.7031 251.728C84.2849 249.814 63.6087 246.025 58.4128 242.399C54.3597 239.571 51.1447 234.42 50.3407 229.547C49.6853 225.573 49.9867 221.247 49.9851 217.23L49.986 196.801L49.9838 178.051C49.9709 174.04 49.7211 169.889 50.2224 165.909C50.6203 162.749 51.597 159.708 53.4808 157.113C56.3131 153.21 60.9269 150.633 65.7605 150.415C70.8348 150.185 87.486 155.804 93.6527 157.548C101.661 159.812 109.723 161.916 117.711 164.247C119.967 164.906 125.815 167.241 127.905 166.864C127.951 166.856 127.996 166.844 128.042 166.834C132.39 167.329 136.729 169.094 140.98 170.153C156.989 174.14 172.756 179.041 188.653 183.449C193.044 184.667 198.419 186.805 202.682 187.65C206.818 189.976 212.533 190.774 217.114 191.977L241.104 198.38C245.295 199.482 249.675 200.336 253.787 201.682C259.511 203.557 263.415 207.252 266.08 212.593C267.388 215.213 268.392 218.203 268.72 221.115C269.581 228.772 269.056 238.412 269.063 246.279C269.072 256.656 269.494 268.131 268.92 278.362C268.782 280.812 268.565 283.561 267.776 285.887C266.617 289.298 264.166 292.583 260.863 294.16C258.41 295.331 255.741 296.071 253.006 295.959C247.705 295.741 241.893 293.304 236.809 291.781C231.838 290.293 226.775 288.934 221.878 287.222C221.022 279.944 221.198 271.343 221.065 263.926C220.976 258.976 219.804 254.696 216.1 251.179C214.334 249.503 212.345 248.342 210.052 247.547C203.888 245.41 197.348 244.008 191.049 242.28L152.92 231.808L117.497 221.838C113.744 220.79 106.2 217.871 102.556 217.985C100.046 218.063 97.0872 219.448 95.3926 221.299C93.7964 223.042 92.754 225.357 92.2416 227.647C91.2659 232.007 91.7679 237.066 91.758 241.519C91.7505 244.913 91.5354 248.339 91.7031 251.728Z"/>
	<path fill="#7E2F3F" d="M72.296 180.773C73.2054 181.085 74.1967 181.511 75.1387 181.687C75.7758 182.05 75.8475 182.081 76.1491 182.743L76.0004 183.264C74.6922 183.292 73.5199 183.111 72.239 182.855C72.1539 182.164 72.2445 181.464 72.296 180.773Z"/>
	<defs>
		<linearGradient id="gradient_0" gradientUnits="userSpaceOnUse" x1="77.363251" y1="179.8445" x2="80.550468" y2="181.12094">
			<stop offset="0" stop-color="#7D253C"/>
			<stop offset="1" stop-color="#8A1B56"/>
		</linearGradient>
	</defs>
	<path fill="url(#gradient_0)" d="M80.6461 177.989C81.2897 178.147 81.9056 178.026 82.5518 177.943C81.624 179.928 80.225 182.044 78.0906 182.879Q77.0813 183.266 76.0004 183.264L76.1491 182.743C75.8475 182.081 75.7758 182.05 75.1387 181.687C77.8705 181.036 78.8858 180.091 80.6461 177.989Z"/>
	<path fill="#7E1B52" d="M72.239 182.855C70.5666 182.013 69.3827 180.848 68.6222 179.13C67.666 176.969 67.708 174.464 68.5597 172.283L68.9129 172.625C69.2857 172.603 69.7011 172.538 70.0708 172.575C69.6417 174.82 69.5182 177.174 70.8963 179.143C71.3062 179.729 71.7943 180.266 72.296 180.773C72.2445 181.464 72.1539 182.164 72.239 182.855Z"/>
	<path fill="#7E2F3F" d="M68.5597 172.283C69.3045 170.351 70.3792 168.813 72.3218 167.93C74.039 167.148 75.981 167.139 77.7307 167.825Q78.1095 167.977 78.472 168.165Q78.8344 168.353 79.1771 168.575Q79.5197 168.797 79.8394 169.051Q80.1591 169.305 80.4529 169.588Q80.7466 169.872 81.0117 170.182Q81.2767 170.493 81.5107 170.827Q81.7446 171.162 81.9452 171.517Q82.1459 171.873 82.3113 172.246C83.1407 174.165 82.9836 175.949 82.5518 177.943C81.9056 178.026 81.2897 178.147 80.6461 177.989C80.6849 177.897 80.7262 177.807 80.7624 177.715C81.3421 176.236 81.314 174.252 80.6495 172.813C79.6293 170.604 77.5386 169.711 75.3854 168.951C73.1266 169.628 71.5117 170.714 70.0708 172.575C69.7011 172.538 69.2857 172.603 68.9129 172.625L68.5597 172.283Z"/>
	<path fill="#7E1B52" d="M182.79 199.337C183.712 198.789 184.36 198.568 185.43 198.792C186.128 198.937 186.671 199.368 187.048 199.966C188.408 202.118 188.399 205.824 187.76 208.205C187.264 210.059 185.902 212.699 184.22 213.729C183.655 214.075 182.994 214.25 182.342 214.079C181.262 213.797 180.327 212.935 179.828 211.955C178.794 209.922 178.733 206.7 179.328 204.536C179.389 204.313 179.5 204.155 179.627 203.966Q179.745 203.255 179.903 202.552C180.295 200.876 181.433 200.193 182.79 199.337Z"/>
	<path fill="#FDFCFB" d="M182.79 199.337C183.593 199.924 184.311 200.376 184.502 201.427C184.709 202.568 184.416 203.847 183.738 204.786C183.265 205.441 182.567 206.048 181.745 206.182C181.218 206.268 180.827 206.062 180.382 205.809C179.892 205.219 179.788 204.706 179.627 203.966Q179.745 203.255 179.903 202.552C180.295 200.876 181.433 200.193 182.79 199.337Z"/>
	<path fill="#FCE277" d="M75.3854 168.951C77.5386 169.711 79.6293 170.604 80.6495 172.813C81.314 174.252 81.3421 176.236 80.7624 177.715C80.7262 177.807 80.6849 177.897 80.6461 177.989C78.8858 180.091 77.8705 181.036 75.1387 181.687C74.1967 181.511 73.2054 181.085 72.296 180.773C71.7943 180.266 71.3062 179.729 70.8963 179.143C69.5182 177.174 69.6417 174.82 70.0708 172.575C71.5117 170.714 73.1266 169.628 75.3854 168.951Z"/>
	<path fill="#7E1B52" d="M144.023 188.268C144.725 187.83 145.261 187.635 146.087 187.857C147.093 188.128 147.837 188.982 148.297 189.878C149.735 192.684 149.374 197.056 148.371 199.945C147.85 201.443 146.926 202.983 145.429 203.667Q145.103 203.819 144.752 203.902Q144.402 203.984 144.042 203.996Q143.683 204.007 143.328 203.945Q142.973 203.884 142.638 203.753C141.426 203.267 140.526 202.15 140.074 200.949C139.396 199.149 139.421 195.644 140.275 193.909C140.303 193.851 140.341 193.799 140.374 193.745C140.05 192.221 140.843 190.761 141.446 189.408C142.273 188.899 143.019 188.325 144.023 188.268Z"/>
	<path fill="#FDFCFB" d="M141.446 189.408C142.273 188.899 143.019 188.325 144.023 188.268C144.927 189.309 145.615 190.264 145.517 191.73C145.449 192.749 145.056 193.727 144.693 194.67C143.895 195.135 143.199 195.634 142.248 195.653C141.286 195.344 140.873 194.566 140.374 193.745C140.05 192.221 140.843 190.761 141.446 189.408Z"/>
	<path fill="#7E1B52" d="M96.548 174.02C98.1964 173.931 99.6774 173.811 101.237 174.46Q101.593 174.607 101.933 174.788Q102.273 174.97 102.593 175.185Q102.912 175.4 103.209 175.646Q103.505 175.892 103.775 176.167Q104.046 176.442 104.287 176.742Q104.528 177.043 104.738 177.366Q104.948 177.689 105.124 178.032Q105.3 178.374 105.441 178.733C106.28 180.836 106.284 183.314 105.372 185.394C104.331 187.769 102.558 188.947 100.216 189.844C99.4827 189.99 98.7219 190.024 97.9752 190.008Q97.6432 189.999 97.3137 189.958Q96.9842 189.917 96.6603 189.844Q96.3364 189.77 96.0212 189.666Q95.706 189.561 95.4025 189.427Q95.0991 189.292 94.8102 189.128Q94.5214 188.964 94.25 188.773Q93.9785 188.581 93.7271 188.364Q93.4757 188.147 93.2467 187.907C90.851 185.358 90.9916 182.238 91.0753 178.991C92.3434 176.641 94.0279 174.939 96.548 174.02Z"/>
	<path fill="#76B498" d="M97.948 175.831C98.756 175.803 99.5985 175.829 100.351 176.151C101.85 176.792 102.994 177.832 103.603 179.372C104.185 180.844 104.194 182.678 103.562 184.128C102.615 186.304 101.084 187.228 98.9593 188.084C97.5187 188.07 96.5435 187.788 95.3602 186.941Q95.0974 186.755 94.8544 186.544Q94.6114 186.333 94.3905 186.098Q94.1696 185.864 93.973 185.609Q93.7764 185.354 93.606 185.081Q93.4356 184.808 93.2931 184.519Q93.1507 184.231 93.0375 183.929Q92.9243 183.628 92.8416 183.317Q92.7588 183.006 92.7073 182.688Q92.6593 182.387 92.6409 182.084Q92.6226 181.78 92.6341 181.476Q92.6456 181.172 92.687 180.87Q92.7283 180.569 92.7989 180.272Q92.8696 179.976 92.969 179.689Q93.0683 179.401 93.1954 179.124Q93.3225 178.848 93.4761 178.585Q93.6297 178.322 93.8083 178.076C94.8945 176.598 96.1904 176.108 97.948 175.831Z"/>
	<path fill="#7E1B52" d="M147.195 211.886C149.834 211.892 157.511 215.18 160.986 215.934C162.928 216.355 171.968 217.184 172.632 217.608C173.065 218.222 173.293 218.734 173.269 219.5C173.204 221.673 171.271 223.544 169.827 224.945C169.126 225.54 168.346 226.138 167.542 226.584C164.264 228.405 159.678 228.535 156.146 227.454Q155.49 227.256 154.856 226.994Q154.223 226.732 153.619 226.408Q153.014 226.085 152.445 225.703Q151.876 225.321 151.347 224.885Q150.818 224.448 150.335 223.962Q149.852 223.475 149.42 222.943Q148.988 222.411 148.61 221.839Q148.233 221.267 147.914 220.66C146.431 217.776 146.219 214.945 147.195 211.886Z"/>
	<path fill="#7E1B52" d="M221.719 204.051C224.669 203.853 228.164 204.974 230.575 206.655C233.596 208.761 235.466 212.236 236.074 215.822C236.749 219.807 236.02 223.808 233.615 227.093C230.986 230.683 227.607 232.283 223.307 232.972C220.607 233.163 217.578 232.154 215.313 230.728Q214.722 230.351 214.171 229.916Q213.62 229.482 213.116 228.995Q212.611 228.507 212.157 227.973Q211.703 227.438 211.305 226.86Q210.907 226.283 210.568 225.669Q210.229 225.055 209.953 224.41Q209.677 223.765 209.466 223.096Q209.256 222.427 209.113 221.74Q208.958 221.039 208.872 220.325Q208.787 219.612 208.772 218.894Q208.757 218.176 208.813 217.459Q208.87 216.743 208.996 216.036Q209.123 215.329 209.319 214.638Q209.514 213.947 209.777 213.278Q210.04 212.609 210.368 211.97Q210.696 211.331 211.085 210.727C213.619 206.845 217.281 204.958 221.719 204.051Z"/>
	<path fill="#FDFCFB" d="M221.815 207.029C224.028 206.915 226.37 207.559 228.233 208.759Q228.718 209.072 229.169 209.431Q229.62 209.79 230.034 210.192Q230.447 210.594 230.819 211.035Q231.191 211.476 231.517 211.952Q231.843 212.428 232.121 212.933Q232.398 213.439 232.624 213.97Q232.85 214.5 233.023 215.051Q233.195 215.601 233.312 216.166Q233.435 216.743 233.5 217.329Q233.565 217.915 233.571 218.504Q233.578 219.094 233.526 219.681Q233.474 220.268 233.364 220.848Q233.254 221.427 233.087 221.992Q232.92 222.558 232.698 223.104Q232.475 223.65 232.2 224.171Q231.925 224.693 231.599 225.184C229.693 228.01 226.876 229.451 223.6 230.084C221.378 230.067 219.194 229.545 217.265 228.425C214.483 226.811 212.533 224.091 211.735 220.992C211.007 218.168 211.502 215.447 212.985 212.952C215.044 209.486 218.05 207.994 221.815 207.029Z"/>
</svg>
